<svg viewBox="0 0 800 800" xmlns="http://www.w3.org/2000/svg">
  <!-- Background -->
  <rect width="800" height="800" fill="#FFF8DC"/>
  
  <!-- Large central sunflower -->
  <g transform="translate(400, 350)">
    <!-- Outer petals layer -->
    <g>
      <!-- 16 outer petals -->
      <g transform="rotate(0)">
        <ellipse cx="0" cy="-45" rx="8" ry="25" fill="#FFD700"/>
      </g>
      <g transform="rotate(22.5)">
        <ellipse cx="0" cy="-45" rx="8" ry="25" fill="#FFA500"/>
      </g>
      <g transform="rotate(45)">
        <ellipse cx="0" cy="-45" rx="8" ry="25" fill="#FFD700"/>
      </g>
      <g transform="rotate(67.5)">
        <ellipse cx="0" cy="-45" rx="8" ry="25" fill="#FFA500"/>
      </g>
      <g transform="rotate(90)">
        <ellipse cx="0" cy="-45" rx="8" ry="25" fill="#FFD700"/>
      </g>
      <g transform="rotate(112.5)">
        <ellipse cx="0" cy="-45" rx="8" ry="25" fill="#FFA500"/>
      </g>
      <g transform="rotate(135)">
        <ellipse cx="0" cy="-45" rx="8" ry="25" fill="#FFD700"/>
      </g>
      <g transform="rotate(157.5)">
        <ellipse cx="0" cy="-45" rx="8" ry="25" fill="#FFA500"/>
      </g>
      <g transform="rotate(180)">
        <ellipse cx="0" cy="-45" rx="8" ry="25" fill="#FFD700"/>
      </g>
      <g transform="rotate(202.5)">
        <ellipse cx="0" cy="-45" rx="8" ry="25" fill="#FFA500"/>
      </g>
      <g transform="rotate(225)">
        <ellipse cx="0" cy="-45" rx="8" ry="25" fill="#FFD700"/>
      </g>
      <g transform="rotate(247.5)">
        <ellipse cx="0" cy="-45" rx="8" ry="25" fill="#FFA500"/>
      </g>
      <g transform="rotate(270)">
        <ellipse cx="0" cy="-45" rx="8" ry="25" fill="#FFD700"/>
      </g>
      <g transform="rotate(292.5)">
        <ellipse cx="0" cy="-45" rx="8" ry="25" fill="#FFA500"/>
      </g>
      <g transform="rotate(315)">
        <ellipse cx="0" cy="-45" rx="8" ry="25" fill="#FFD700"/>
      </g>
      <g transform="rotate(337.5)">
        <ellipse cx="0" cy="-45" rx="8" ry="25" fill="#FFA500"/>
      </g>
    </g>
    
    <!-- Inner petals layer -->
    <g>
      <!-- 12 inner petals -->
      <g transform="rotate(15)">
        <ellipse cx="0" cy="-35" rx="6" ry="20" fill="#FFFF99"/>
      </g>
      <g transform="rotate(45)">
        <ellipse cx="0" cy="-35" rx="6" ry="20" fill="#FFFF99"/>
      </g>
      <g transform="rotate(75)">
        <ellipse cx="0" cy="-35" rx="6" ry="20" fill="#FFFF99"/>
      </g>
      <g transform="rotate(105)">
        <ellipse cx="0" cy="-35" rx="6" ry="20" fill="#FFFF99"/>
      </g>
      <g transform="rotate(135)">
        <ellipse cx="0" cy="-35" rx="6" ry="20" fill="#FFFF99"/>
      </g>
      <g transform="rotate(165)">
        <ellipse cx="0" cy="-35" rx="6" ry="20" fill="#FFFF99"/>
      </g>
      <g transform="rotate(195)">
        <ellipse cx="0" cy="-35" rx="6" ry="20" fill="#FFFF99"/>
      </g>
      <g transform="rotate(225)">
        <ellipse cx="0" cy="-35" rx="6" ry="20" fill="#FFFF99"/>
      </g>
      <g transform="rotate(255)">
        <ellipse cx="0" cy="-35" rx="6" ry="20" fill="#FFFF99"/>
      </g>
      <g transform="rotate(285)">
        <ellipse cx="0" cy="-35" rx="6" ry="20" fill="#FFFF99"/>
      </g>
      <g transform="rotate(315)">
        <ellipse cx="0" cy="-35" rx="6" ry="20" fill="#FFFF99"/>
      </g>
      <g transform="rotate(345)">
        <ellipse cx="0" cy="-35" rx="6" ry="20" fill="#FFFF99"/>
      </g>
    </g>
    
    <!-- Center -->
    <circle cx="0" cy="0" r="25" fill="#8B4513"/>
    <circle cx="0" cy="0" r="20" fill="#654321"/>
    
    <!-- Center pattern -->
    <g fill="#4A4A4A">
      <circle cx="-8" cy="-8" r="2"/>
      <circle cx="8" cy="-8" r="2"/>
      <circle cx="-8" cy="8" r="2"/>
      <circle cx="8" cy="8" r="2"/>
      <circle cx="0" cy="-12" r="2"/>
      <circle cx="0" cy="12" r="2"/>
      <circle cx="-12" cy="0" r="2"/>
      <circle cx="12" cy="0" r="2"/>
      <circle cx="-6" cy="-6" r="1"/>
      <circle cx="6" cy="-6" r="1"/>
      <circle cx="-6" cy="6" r="1"/>
      <circle cx="6" cy="6" r="1"/>
    </g>
  </g>
  
  <!-- Smaller sunflower top left -->
  <g transform="translate(150, 150)">
    <!-- Petals -->
    <g>
      <g transform="rotate(0)">
        <ellipse cx="0" cy="-25" rx="5" ry="15" fill="#FFD700"/>
      </g>
      <g transform="rotate(30)">
        <ellipse cx="0" cy="-25" rx="5" ry="15" fill="#FFA500"/>
      </g>
      <g transform="rotate(60)">
        <ellipse cx="0" cy="-25" rx="5" ry="15" fill="#FFD700"/>
      </g>
      <g transform="rotate(90)">
        <ellipse cx="0" cy="-25" rx="5" ry="15" fill="#FFA500"/>
      </g>
      <g transform="rotate(120)">
        <ellipse cx="0" cy="-25" rx="5" ry="15" fill="#FFD700"/>
      </g>
      <g transform="rotate(150)">
        <ellipse cx="0" cy="-25" rx="5" ry="15" fill="#FFA500"/>
      </g>
      <g transform="rotate(180)">
        <ellipse cx="0" cy="-25" rx="5" ry="15" fill="#FFD700"/>
      </g>
      <g transform="rotate(210)">
        <ellipse cx="0" cy="-25" rx="5" ry="15" fill="#FFA500"/>
      </g>
      <g transform="rotate(240)">
        <ellipse cx="0" cy="-25" rx="5" ry="15" fill="#FFD700"/>
      </g>
      <g transform="rotate(270)">
        <ellipse cx="0" cy="-25" rx="5" ry="15" fill="#FFA500"/>
      </g>
      <g transform="rotate(300)">
        <ellipse cx="0" cy="-25" rx="5" ry="15" fill="#FFD700"/>
      </g>
      <g transform="rotate(330)">
        <ellipse cx="0" cy="-25" rx="5" ry="15" fill="#FFA500"/>
      </g>
    </g>
    
    <!-- Center -->
    <circle cx="0" cy="0" r="12" fill="#8B4513"/>
    <circle cx="0" cy="0" r="8" fill="#654321"/>
  </g>
  
  <!-- Smaller sunflower top right -->
  <g transform="translate(650, 180)">
    <!-- Petals -->
    <g>
      <g transform="rotate(0)">
        <ellipse cx="0" cy="-22" rx="4" ry="13" fill="#FFD700"/>
      </g>
      <g transform="rotate(36)">
        <ellipse cx="0" cy="-22" rx="4" ry="13" fill="#FFA500"/>
      </g>
      <g transform="rotate(72)">
        <ellipse cx="0" cy="-22" rx="4" ry="13" fill="#FFD700"/>
      </g>
      <g transform="rotate(108)">
        <ellipse cx="0" cy="-22" rx="4" ry="13" fill="#FFA500"/>
      </g>
      <g transform="rotate(144)">
        <ellipse cx="0" cy="-22" rx="4" ry="13" fill="#FFD700"/>
      </g>
      <g transform="rotate(180)">
        <ellipse cx="0" cy="-22" rx="4" ry="13" fill="#FFA500"/>
      </g>
      <g transform="rotate(216)">
        <ellipse cx="0" cy="-22" rx="4" ry="13" fill="#FFD700"/>
      </g>
      <g transform="rotate(252)">
        <ellipse cx="0" cy="-22" rx="4" ry="13" fill="#FFA500"/>
      </g>
      <g transform="rotate(288)">
        <ellipse cx="0" cy="-22" rx="4" ry="13" fill="#FFD700"/>
      </g>
      <g transform="rotate(324)">
        <ellipse cx="0" cy="-22" rx="4" ry="13" fill="#FFA500"/>
      </g>
    </g>
    
    <!-- Center -->
    <circle cx="0" cy="0" r="10" fill="#8B4513"/>
    <circle cx="0" cy="0" r="6" fill="#654321"/>
  </g>
  
  <!-- Smaller sunflower bottom left -->
  <g transform="translate(120, 580)">
    <!-- Petals -->
    <g>
      <g transform="rotate(0)">
        <ellipse cx="0" cy="-20" rx="4" ry="12" fill="#FFD700"/>
      </g>
      <g transform="rotate(45)">
        <ellipse cx="0" cy="-20" rx="4" ry="12" fill="#FFA500"/>
      </g>
      <g transform="rotate(90)">
        <ellipse cx="0" cy="-20" rx="4" ry="12" fill="#FFD700"/>
      </g>
      <g transform="rotate(135)">
        <ellipse cx="0" cy="-20" rx="4" ry="12" fill="#FFA500"/>
      </g>
      <g transform="rotate(180)">
        <ellipse cx="0" cy="-20" rx="4" ry="12" fill="#FFD700"/>
      </g>
      <g transform="rotate(225)">
        <ellipse cx="0" cy="-20" rx="4" ry="12" fill="#FFA500"/>
      </g>
      <g transform="rotate(270)">
        <ellipse cx="0" cy="-20" rx="4" ry="12" fill="#FFD700"/>
      </g>
      <g transform="rotate(315)">
        <ellipse cx="0" cy="-20" rx="4" ry="12" fill="#FFA500"/>
      </g>
    </g>
    
    <!-- Center -->
    <circle cx="0" cy="0" r="9" fill="#8B4513"/>
    <circle cx="0" cy="0" r="5" fill="#654321"/>
  </g>
  
  <!-- Smaller sunflower bottom right -->
  <g transform="translate(680, 620)">
    <!-- Petals -->
    <g>
      <g transform="rotate(0)">
        <ellipse cx="0" cy="-18" rx="3" ry="10" fill="#FFD700"/>
      </g>
      <g transform="rotate(60)">
        <ellipse cx="0" cy="-18" rx="3" ry="10" fill="#FFA500"/>
      </g>
      <g transform="rotate(120)">
        <ellipse cx="0" cy="-18" rx="3" ry="10" fill="#FFD700"/>
      </g>
      <g transform="rotate(180)">
        <ellipse cx="0" cy="-18" rx="3" ry="10" fill="#FFA500"/>
      </g>
      <g transform="rotate(240)">
        <ellipse cx="0" cy="-18" rx="3" ry="10" fill="#FFD700"/>
      </g>
      <g transform="rotate(300)">
        <ellipse cx="0" cy="-18" rx="3" ry="10" fill="#FFA500"/>
      </g>
    </g>
    
    <!-- Center -->
    <circle cx="0" cy="0" r="8" fill="#8B4513"/>
    <circle cx="0" cy="0" r="4" fill="#654321"/>
  </g>
  
  <!-- Traditional elements -->
  <!-- Turmeric powder scattered effect -->
  <g fill="#FFD700" opacity="0.6">
    <circle cx="200" cy="250" r="3"/>
    <circle cx="580" cy="280" r="2"/>
    <circle cx="180" cy="450" r="4"/>
    <circle cx="620" cy="520" r="3"/>
    <circle cx="250" cy="380" r="2"/>
    <circle cx="550" cy="420" r="3"/>
    <circle cx="150" cy="320" r="2"/>
    <circle cx="650" cy="350" r="4"/>
  </g>
  
  <!-- Decorative leaves -->
  <g fill="#228B22">
    <!-- Top leaves -->
    <ellipse cx="300" cy="200" rx="8" ry="20" fill="#228B22" transform="rotate(30 300 200)"/>
    <ellipse cx="500" cy="180" rx="6" ry="15" fill="#32CD32" transform="rotate(-45 500 180)"/>
    
    <!-- Side leaves -->
    <ellipse cx="180" cy="380" rx="10" ry="25" fill="#228B22" transform="rotate(60 180 380)"/>
    <ellipse cx="620" cy="400" rx="8" ry="20" fill="#32CD32" transform="rotate(-30 620 400)"/>
    
    <!-- Bottom leaves -->
    <ellipse cx="280" cy="580" rx="7" ry="18" fill="#228B22" transform="rotate(15 280 580)"/>
    <ellipse cx="520" cy="600" rx="9" ry="22" fill="#32CD32" transform="rotate(-60 520 600)"/>
  </g>
  
  <!-- Title area with decorative border -->
  <g transform="translate(400, 100)">
    <!-- Decorative border -->
    <rect x="-200" y="-40" width="400" height="80" rx="15" fill="none" stroke="#FFD700" stroke-width="3"/>
    <rect x="-195" y="-35" width="390" height="70" rx="12" fill="rgba(255, 215, 0, 0.1)"/>
    
    <!-- Small sunflowers in corners -->
    <g transform="translate(-170, -20)">
      <g>
        <g transform="rotate(0)">
          <ellipse cx="0" cy="-8" rx="2" ry="5" fill="#FFD700"/>
        </g>
        <g transform="rotate(72)">
          <ellipse cx="0" cy="-8" rx="2" ry="5" fill="#FFA500"/>
        </g>
        <g transform="rotate(144)">
          <ellipse cx="0" cy="-8" rx="2" ry="5" fill="#FFD700"/>
        </g>
        <g transform="rotate(216)">
          <ellipse cx="0" cy="-8" rx="2" ry="5" fill="#FFA500"/>
        </g>
        <g transform="rotate(288)">
          <ellipse cx="0" cy="-8" rx="2" ry="5" fill="#FFD700"/>
        </g>
      </g>
      <circle cx="0" cy="0" r="4" fill="#8B4513"/>
    </g>
    
    <g transform="translate(170, -20)">
      <g>
        <g transform="rotate(0)">
          <ellipse cx="0" cy="-8" rx="2" ry="5" fill="#FFD700"/>
        </g>
        <g transform="rotate(72)">
          <ellipse cx="0" cy="-8" rx="2" ry="5" fill="#FFA500"/>
        </g>
        <g transform="rotate(144)">
          <ellipse cx="0" cy="-8" rx="2" ry="5" fill="#FFD700"/>
        </g>
        <g transform="rotate(216)">
          <ellipse cx="0" cy="-8" rx="2" ry="5" fill="#FFA500"/>
        </g>
        <g transform="rotate(288)">
          <ellipse cx="0" cy="-8" rx="2" ry="5" fill="#FFD700"/>
        </g>
      </g>
      <circle cx="0" cy="0" r="4" fill="#8B4513"/>
    </g>
    
    <g transform="translate(-170, 20)">
      <g>
        <g transform="rotate(0)">
          <ellipse cx="0" cy="-8" rx="2" ry="5" fill="#FFD700"/>
        </g>
        <g transform="rotate(72)">
          <ellipse cx="0" cy="-8" rx="2" ry="5" fill="#FFA500"/>
        </g>
        <g transform="rotate(144)">
          <ellipse cx="0" cy="-8" rx="2" ry="5" fill="#FFD700"/>
        </g>
        <g transform="rotate(216)">
          <ellipse cx="0" cy="-8" rx="2" ry="5" fill="#FFA500"/>
        </g>
        <g transform="rotate(288)">
          <ellipse cx="0" cy="-8" rx="2" ry="5" fill="#FFD700"/>
        </g>
      </g>
      <circle cx="0" cy="0" r="4" fill="#8B4513"/>
    </g>
    
    <g transform="translate(170, 20)">
      <g>
        <g transform="rotate(0)">
          <ellipse cx="0" cy="-8" rx="2" ry="5" fill="#FFD700"/>
        </g>
        <g transform="rotate(72)">
          <ellipse cx="0" cy="-8" rx="2" ry="5" fill="#FFA500"/>
        </g>
        <g transform="rotate(144)">
          <ellipse cx="0" cy="-8" rx="2" ry="5" fill="#FFD700"/>
        </g>
        <g transform="rotate(216)">
          <ellipse cx="0" cy="-8" rx="2" ry="5" fill="#FFA500"/>
        </g>
        <g transform="rotate(288)">
          <ellipse cx="0" cy="-8" rx="2" ry="5" fill="#FFD700"/>
        </g>
      </g>
      <circle cx="0" cy="0" r="4" fill="#8B4513"/>
    </g>
  </g>
</svg>
